<mxfile host="app.diagrams.net" agent="Mozilla/5.0 (Windows NT 10.0; Win64; x64) AppleWebKit/537.36 (KHTML, like Gecko) Chrome/129.0.0.0 Safari/537.36 Edg/129.0.0.0" version="26.2.14">
  <diagram name="第 1 页" id="kgmaKhdpKsoGW5C4AUYL">
    <mxGraphModel dx="1418" dy="762" grid="1" gridSize="10" guides="1" tooltips="1" connect="1" arrows="1" fold="1" page="1" pageScale="1" pageWidth="827" pageHeight="1169" math="0" shadow="0">
      <root>
        <mxCell id="0" />
        <mxCell id="1" parent="0" />
        <mxCell id="dtAdA0Zzxd3OSE_nkNSE-2" value="" style="shape=tape;whiteSpace=wrap;html=1;strokeColor=#FF6392;fontColor=#5AA9E6;fillColor=#FFE45E;labelBackgroundColor=none;" vertex="1" parent="1">
          <mxGeometry x="230" y="170" width="120" height="100" as="geometry" />
        </mxCell>
        <mxCell id="dtAdA0Zzxd3OSE_nkNSE-1" value="&lt;h1 style=&quot;margin-top: 0px;&quot;&gt;Heading&lt;/h1&gt;&lt;p&gt;Lorem ipsum dolor sit amet, consectetur adipisicing elit, sed do eiusmod tempor incididunt ut labore et dolore magna aliqua.&lt;/p&gt;" style="text;html=1;whiteSpace=wrap;overflow=hidden;rounded=0;labelBackgroundColor=none;fontColor=#5AA9E6;" vertex="1" parent="1">
          <mxGeometry x="320" y="330" width="180" height="120" as="geometry" />
        </mxCell>
      </root>
    </mxGraphModel>
  </diagram>
</mxfile>
